<svg version="1.1" id="Layer_1" xmlns="http://www.w3.org/2000/svg" x="0" y="0" viewBox="0 0 938.6 220.1" xml:space="preserve"><style>.st0{fill:#fff}</style><path class="st0" d="M516 124.4V83.8h-13.7l-4.7 4.7 0 0c-5.2-3-11.2-4.8-18.1-4.8-22.4 0-36.5 18.2-36.5 40.6s14.1 40.6 36.5 40.6c6.9 0 13-1.7 18.1-4.8l0 0 4.6 4.6H516L516 124.4C516 124.4 516 124.4 516 124.4L516 124.4zM479.4 146.6c-13.4 0-18.1-12-18.1-22.2 0-10.3 4.8-22.2 18.1-22.2 13.4 0 18.1 12 18.1 22.2l0 0C497.6 134.6 492.8 146.6 479.4 146.6zM396.3 83.8c-22.8 0-37.1 18.2-37.1 40.6s14.3 40.6 37.1 40.6 37.1-18.2 37.1-40.6C433.4 101.9 419.1 83.8 396.3 83.8zM396.3 146.6c-13.6 0-18.4-12-18.4-22.2 0-10.3 4.8-22.2 18.4-22.2s18.4 12 18.4 22.2S409.9 146.6 396.3 146.6zM328.6 49.2H348.5V165H328.6zM306.3 49.2c-17.9 0-29.1 14.6-29.1 32.5v5.4h-6.6v16.3h6.6V165h18.4v-61.6H310V87.1h-14.4v-5.4c0-2.4.5-14.1 10.8-14.1h9.8V49.2H306.3zM564.6 146.6c-10.3 0-10.8-11.8-10.8-14.1v-32.3h12.3V83.9h-12.3V68.4h-18.4v15.5h-6.8v16.3h6.8v32.3c0 17.9 11.2 32.4 29.1 32.5h7.6v-18.4H564.6zM621.1 83.6c-7.3 0-13.7 1.9-19 5.3l-3.8-5.2h-13.8V195h18.4v-34.9c5.2 3 11.2 4.8 18.1 4.8 22.4 0 36.5-18.2 36.5-40.6C657.6 101.8 643.5 83.6 621.1 83.6zM621.1 146.5c-13.4 0-18.1-12-18.1-22.2s4.8-22.2 18.1-22.2c13.4 0 18.1 12 18.1 22.2S634.5 146.5 621.1 146.5zM772 124.4V83.8h-13.7l-4.7 4.7 0 0c-5.2-3-11.2-4.8-18.1-4.8-22.4 0-36.5 18.2-36.5 40.6s14.1 40.6 36.5 40.6c6.9 0 13-1.7 18.1-4.8l0 0 4.6 4.6H772L772 124.4 772 124.4 772 124.4zM735.5 146.6c-13.4 0-18.1-12-18.1-22.2 0-10.3 4.8-22.2 18.1-22.2 13.4 0 18.1 12 18.1 22.2l0 0C753.6 134.6 748.9 146.6 735.5 146.6zM668.3 49.2H688.1999999999999V165H668.3zM825.1 83.8c-9.9 0-17.1 1.7-22.2 4.8l0 0-4.6-4.6h-13.8v81h18.4c0 0 0-44.2 0-44.3 0-11.2 6.8-17.9 17.1-17.8 12.5 0 17.1 7.8 17.1 17.8V165h18.4v-48.7l0 0C855.5 98.3 843 83.8 825.1 83.8zM938.6 123.4c-.1-3.2-.4-6.3-1.1-9.3l0 0 0 0c-3.6-17.5-16.5-30.4-35.4-30.4-22.4 0-36.5 18.2-36.5 40.6s14.1 40.6 36.5 40.6c12.6 0 25.9-6.7 32.5-15.7l-13.3-13.3c-3.1 5.6-11.2 10.7-19.1 10.7-10.8 0-15.9-7.7-17.6-16.1h53.5c.3-1.8.5-3.9.5-6V123.4zM885.7 114.2c2.4-6.6 7.5-12 16.4-12 9 0 14.1 5.4 16.4 12H885.7zM164.6 184.9c-16.6 14-37.4 21.7-59.3 21.7-24.6 0-47.6-9.6-65-26.9-17.4-17.4-26.9-40.5-26.9-65 0-22 7.7-42.8 21.7-59.3l-8.4-10.7C10.1 63.3 0 87.9 0 114.8 0 173 47.1 220.1 105.3 220.1c26.9 0 51.5-10.1 70.1-26.7L164.6 184.9zM76.4 27.4c9.2-3 18.9-4.6 28.9-4.6 24.6 0 47.6 9.6 65 26.9 17.4 17.4 26.9 40.5 26.9 65 0 10-1.6 19.7-4.6 28.9L203 154c4.9-12.1 7.6-25.4 7.6-39.3 0-58.2-47.1-105.3-105.3-105.3C91.4 9.4 78.1 12.1 66 17L76.4 27.4z"/><path class="st0" d="M88.8 59.1L31.6 0l-8.9 13.9c-.8 1.3-.7 3 .3 4.2l49.6 63.7L88.8 59.1zM70.2 137.2l-23-17.3L43 127c-.5.8-.4 1.8.3 2.5l19.4 21L70.2 137.2zM111.5 82.6l-5.3-5.5 1.4-5.6c.6-2.5.8-4.5.6-5.7-.8-3.6-2.5-6.3-2.5-6.3l-50.2 53.8c0 0 3.4 3.3 8.3-.5C66 111.1 74.7 104 84 96.3l8.5 10.9L111.5 82.6zM160.5 130.8l1.4-5.6c.5-1.9.8-3.5.6-4.6-.6-3.6-2-6.3-2-6.3l-53.8 50.2c0 0 3.3 3.4 8.4 0 2.5-1.7 13.1-9.1 23.7-16.7L202 197c1.2 1 2.9 1.1 4.2.3l13.9-8.9L160.5 130.8zM83.1 150.3c8.1-6.2 19.4-14.9 29.5-22.7l11.4 8.9 18.7-22.7-6.2-6 2-7.1c1-3.6 1.4-6.4 1.1-8.1-1-5.2-3.3-9-3.3-9l-74 74c0 0 2.3 1.9 7.1 0l20.9 19.3c.7.6 1.7.7 2.5.3l7.1-4.2L83.1 150.3z"/></svg>